<svg width="31" height="9" viewBox="0 0 31 9" fill="none" xmlns="http://www.w3.org/2000/svg">
<path d="M4.97149 2.8637L5.74549 4.7397H4.20349L4.97149 2.8637ZM21.0465 2.9417H18.0695V3.7687H20.9985V5.0077H18.0755V5.9297H21.0525V6.6687L23.1295 4.4237L21.0525 2.0837L21.0465 2.9417ZM6.98349 0.601703H10.9785L11.8655 2.5367L12.6875 0.595703H23.0575L24.1355 1.7857L25.2505 0.595703H30.0135L26.4945 4.4477L29.9775 8.2757H25.1435L24.0655 7.0857L22.9405 8.2757H6.03049L5.53649 7.0857H4.40649L3.91149 8.2757H0.000488281L3.28649 0.595703H6.71649L6.98349 0.601703ZM15.6465 1.6797H13.4075L11.9075 5.2157L10.2825 1.6797H8.06049V6.4897L6.00049 1.6797H4.00749L1.62549 7.1917H3.18049L3.67449 6.0017H6.27049L6.76449 7.1917H9.48448V3.2567L11.2355 7.1977H12.4255L14.1655 3.2687V7.1987H15.6235L15.6475 1.6787L15.6465 1.6797ZM24.9865 4.4477L27.5175 1.6797H25.6955L24.0945 3.4057L22.5465 1.6797H16.6525V7.1977H22.4625L24.0765 5.4597L25.6245 7.1977H27.4995L24.9875 4.4477H24.9865Z" fill="white"/>
</svg>
