<svg width="20" height="17" viewBox="0 0 20 17" fill="none" xmlns="http://www.w3.org/2000/svg">
<path d="M20 13.5157C20 15.3966 18.6064 16.9282 16.8949 16.9282H0V3.41251C0 1.5316 1.39364 0 3.10513 0H20V13.5157Z" fill="white"/>
<path d="M14.499 10.0495H15.7826C15.8193 10.0495 15.9049 10.0361 15.9416 10.0361C16.1861 9.98236 16.3939 9.74053 16.3939 9.40465C16.3939 9.08221 16.1861 8.84038 15.9416 8.7732C15.9049 8.75977 15.8315 8.75977 15.7826 8.75977H14.499V10.0495Z" fill="url(#paint0_linear_0_733)"/>
<path d="M15.6356 1.1416C14.4131 1.1416 13.4107 2.22984 13.4107 3.58679V6.12601H16.5525C16.6258 6.12601 16.7114 6.12601 16.7725 6.13945C17.4816 6.17976 18.0072 6.58281 18.0072 7.28143C18.0072 7.83227 17.6527 8.3025 16.9926 8.39654V8.42341C17.7138 8.47715 18.264 8.92051 18.264 9.6057C18.264 10.3446 17.6527 10.8283 16.8459 10.8283H13.3984V15.7993H16.6625C17.885 15.7993 18.8874 14.711 18.8874 13.3541V1.1416H15.6356Z" fill="url(#paint1_linear_0_733)"/>
<path d="M16.235 7.44271C16.235 7.12026 16.0271 6.9053 15.7826 6.865C15.7582 6.865 15.6971 6.85156 15.6604 6.85156H14.499V8.03385H15.6604C15.6971 8.03385 15.7704 8.03385 15.7826 8.02041C16.0271 7.98011 16.235 7.76515 16.235 7.44271Z" fill="url(#paint2_linear_0_733)"/>
<path d="M3.33775 1.1416C2.11526 1.1416 1.11281 2.22984 1.11281 3.58679V9.61914C1.73628 9.95501 2.3842 10.17 3.03213 10.17C3.8023 10.17 4.21794 9.65944 4.21794 8.96082V6.11258H6.12503V8.94738C6.12503 10.0491 5.50156 10.9492 3.38665 10.9492C2.10303 10.9492 1.10059 10.6402 1.10059 10.6402V15.7858H4.36464C5.58714 15.7858 6.58958 14.6976 6.58958 13.3407V1.1416H3.33775Z" fill="url(#paint3_linear_0_733)"/>
<path d="M9.48666 1.1416C8.26416 1.1416 7.26172 2.22984 7.26172 3.58679V6.78433C7.82407 6.26037 8.80206 5.92449 10.3791 6.0051C11.2226 6.04541 12.1272 6.30067 12.1272 6.30067V7.33517C11.6749 7.07991 11.137 6.85151 10.4402 6.79777C9.24216 6.70372 8.52089 7.34861 8.52089 8.47715C8.52089 9.61914 9.24216 10.264 10.4402 10.1565C11.137 10.1028 11.6749 9.86097 12.1272 9.61914V10.6536C12.1272 10.6536 11.2348 10.9089 10.3791 10.9492C8.80206 11.0298 7.82407 10.6939 7.26172 10.17V15.8127H10.5258C11.7483 15.8127 12.7507 14.7245 12.7507 13.3675V1.1416H9.48666Z" fill="url(#paint4_linear_0_733)"/>
<defs>
<linearGradient id="paint0_linear_0_733" x1="13.409" y1="9.40625" x2="18.9025" y2="9.40625" gradientUnits="userSpaceOnUse">
<stop stop-color="#007940"/>
<stop offset="0.2285" stop-color="#00873F"/>
<stop offset="0.7433" stop-color="#40A737"/>
<stop offset="1" stop-color="#5CB531"/>
</linearGradient>
<linearGradient id="paint1_linear_0_733" x1="13.4085" y1="8.46457" x2="18.9024" y2="8.46457" gradientUnits="userSpaceOnUse">
<stop stop-color="#007940"/>
<stop offset="0.2285" stop-color="#00873F"/>
<stop offset="0.7433" stop-color="#40A737"/>
<stop offset="1" stop-color="#5CB531"/>
</linearGradient>
<linearGradient id="paint2_linear_0_733" x1="13.4088" y1="7.44103" x2="18.9026" y2="7.44103" gradientUnits="userSpaceOnUse">
<stop stop-color="#007940"/>
<stop offset="0.2285" stop-color="#00873F"/>
<stop offset="0.7433" stop-color="#40A737"/>
<stop offset="1" stop-color="#5CB531"/>
</linearGradient>
<linearGradient id="paint3_linear_0_733" x1="1.11022" y1="8.46457" x2="6.68883" y2="8.46457" gradientUnits="userSpaceOnUse">
<stop stop-color="#1F286F"/>
<stop offset="0.4751" stop-color="#004E94"/>
<stop offset="0.8261" stop-color="#0066B1"/>
<stop offset="1" stop-color="#006FBC"/>
</linearGradient>
<linearGradient id="paint4_linear_0_733" x1="7.23011" y1="8.46457" x2="12.6482" y2="8.46457" gradientUnits="userSpaceOnUse">
<stop stop-color="#6C2C2F"/>
<stop offset="0.1735" stop-color="#882730"/>
<stop offset="0.5731" stop-color="#BE1833"/>
<stop offset="0.8585" stop-color="#DC0436"/>
<stop offset="1" stop-color="#E60039"/>
</linearGradient>
</defs>
</svg>
