<svg width="22" height="14" viewBox="0 0 22 14" fill="none" xmlns="http://www.w3.org/2000/svg">
<path d="M7 14C10.866 14 14 10.866 14 7C14 3.13401 10.866 0 7 0C3.13401 0 0 3.13401 0 7C0 10.866 3.13401 14 7 14Z" fill="#EB001B"/>
<path d="M15 14C18.866 14 22 10.866 22 7C22 3.13401 18.866 0 15 0C11.134 0 8 3.13401 8 7C8 10.866 11.134 14 15 14Z" fill="#F79E1B"/>
<path d="M14 6.9998C14 4.5998 12.8 2.4998 11 1.2998C9.2 2.5998 8 4.6998 8 6.9998C8 9.2998 9.2 11.4998 11 12.6998C12.8 11.4998 14 9.3998 14 6.9998Z" fill="#FF5F00"/>
</svg>
