<svg width="14" height="15" viewBox="0 0 14 15" fill="none" xmlns="http://www.w3.org/2000/svg">
<path fill-rule="evenodd" clip-rule="evenodd" d="M5.68564 3.33301H10.1379C12.5284 3.33301 13.4283 4.41892 13.2892 6.01632C13.0605 8.65014 11.2849 10.1073 8.93118 10.1073H7.74283C7.41989 10.1073 7.20268 10.2991 7.11533 10.8189L6.60506 13.8384C6.57173 14.0343 6.4568 14.1498 6.28441 14.1632H3.49284C3.22966 14.1632 3.13657 13.9827 3.20552 13.5919L4.91104 3.90535C4.97884 3.5176 5.21444 3.33301 5.68564 3.33301Z" fill="#009EE3"/>
<path fill-rule="evenodd" clip-rule="evenodd" d="M2.89958 0H7.35645C8.61145 0 10.1009 0.0360938 11.0962 0.825002C11.7616 1.35197 12.111 2.19038 12.0305 3.09066C11.757 6.1442 9.72165 7.85505 6.99098 7.85505H4.79358C4.41892 7.85505 4.17183 8.0778 4.06609 8.68006L3.45238 12.1812C3.41216 12.408 3.30298 12.5421 3.10301 12.5586H0.357401C0.052845 12.5586 -0.0551862 12.3493 0.0241133 11.8965L2.00086 0.664127C2.08016 0.214501 2.35483 0 2.89958 0Z" fill="#113984"/>
<path fill-rule="evenodd" clip-rule="evenodd" d="M4.13086 8.32736L4.90891 3.90638C4.97672 3.51863 5.21347 3.33301 5.68467 3.33301H10.1369C10.8736 3.33301 11.4701 3.43613 11.9367 3.62691C11.4896 6.34529 9.53012 7.85504 6.96496 7.85504H4.7664C4.47679 7.85504 4.26073 7.98807 4.13086 8.32736Z" fill="#172C70"/>
</svg>
