<svg width="27" height="8" viewBox="0 0 27 8" fill="none" xmlns="http://www.w3.org/2000/svg">
<path d="M23.3 2.1H23C22.6 3.1 22.3 3.6 22 5.1H23.9C23.6 3.6 23.6 2.9 23.3 2.1ZM26.2 8H24.5C24.4 8 24.4 8 24.3 7.9L24.1 7L24 6.8H21.6C21.5 6.8 21.4 6.8 21.4 7L21.1 7.9C21.1 8 21 8 21 8H18.9L19.1 7.5L22 0.7C22 0.2 22.3 0 22.8 0H24.3C24.4 0 24.5 -1.93715e-07 24.5 0.2L25.9 6.7C26 7.1 26.1 7.4 26.1 7.8C26.2 7.9 26.2 7.9 26.2 8ZM12.8 7.7L13.2 5.9C13.3 5.9 13.4 6 13.4 6C14.1 6.3 14.8 6.5 15.5 6.4C15.7 6.4 16 6.3 16.2 6.2C16.7 6 16.7 5.5 16.3 5.1C16.1 4.9 15.8 4.8 15.5 4.6C15.1 4.4 14.7 4.2 14.4 3.9C13.2 2.9 13.6 1.5 14.3 0.8C14.9 0.4 15.2 0 16 0C17.2 0 18.5 -1.93715e-07 19.1 0.2H19.2C19.1 0.8 19 1.3 18.8 1.9C18.3 1.7 17.8 1.5 17.3 1.5C17 1.5 16.7 1.5 16.4 1.6C16.2 1.6 16.1 1.7 16 1.8C15.8 2 15.8 2.3 16 2.5L16.5 2.9C16.9 3.1 17.3 3.3 17.6 3.5C18.1 3.8 18.6 4.3 18.7 4.9C18.9 5.8 18.6 6.6 17.8 7.2C17.3 7.6 17.1 7.8 16.4 7.8C15 7.8 13.9 7.9 13 7.6C12.9 7.8 12.9 7.8 12.8 7.7ZM9.3 8C9.4 7.3 9.4 7.3 9.5 7C10 4.8 10.5 2.5 10.9 0.3C11 0.1 11 0 11.2 0H13C12.8 1.2 12.6 2.1 12.3 3.2C12 4.7 11.7 6.2 11.3 7.7C11.3 7.9 11.2 7.9 11 7.9L9.3 8ZM0 0.2C0 0.0999998 0.2 0 0.3 0H3.7C4.2 0 4.6 0.3 4.7 0.8L5.6 5.2C5.6 5.3 5.6 5.3 5.7 5.4C5.7 5.3 5.8 5.3 5.8 5.3L7.9 0.2C7.8 0.0999998 7.9 0 8 0H10.1C10.1 0.1 10.1 0.0999998 10 0.2L6.9 7.5C6.8 7.7 6.8 7.8 6.7 7.9C6.6 8 6.4 7.9 6.2 7.9H4.7C4.6 7.9 4.5 7.9 4.5 7.7L2.9 1.5C2.7 1.3 2.4 0.999999 2 0.899999C1.4 0.599999 0.3 0.399999 0.0999999 0.399999L0 0.2Z" fill="#142688"/>
</svg>
